<svg width="20" height="20" viewBox="0 0 20 20" fill="none" xmlns="http://www.w3.org/2000/svg">
<g clip-path="url(#clip0_92_848)">
<path d="M10 8.94549e-07C10.5021 8.94549e-07 10.9091 0.407015 10.9091 0.909092C10.9091 1.41117 10.5021 1.81818 10 1.81818C7.83158 1.81818 6.29692 1.8201 5.13383 1.97643C3.99696 2.12924 3.35185 2.4145 2.88241 2.8833C2.41427 3.35211 2.12918 3.9969 1.97643 5.13339C1.8603 5.99748 1.82929 7.06675 1.82107 8.44838L1.90319 8.37669L1.90341 8.37646C2.4762 7.87569 3.21798 7.61129 3.97838 7.63672C4.69122 7.66057 5.37053 7.93758 5.896 8.41531L5.9992 8.51341V8.51363L9.89924 12.4134H9.89901C10.0503 12.5647 10.2503 12.6578 10.4634 12.6762C10.6766 12.6947 10.8896 12.6375 11.0647 12.5144V12.5142L11.3366 12.3233C12.01 11.8503 12.824 11.6197 13.6455 11.6693C14.4669 11.7188 15.2472 12.0456 15.8589 12.5961L18.0582 14.5748C18.1797 13.4492 18.1818 11.9919 18.1818 10C18.1818 9.49792 18.5888 9.09091 19.0909 9.09091C19.593 9.09091 20 9.49792 20 10C20 12.117 20.0019 13.7963 19.8253 15.1088C19.6453 16.447 19.2648 17.5389 18.4022 18.4013C17.54 19.2647 16.4476 19.6453 15.109 19.8253C13.7965 20.0018 12.117 20 10 20C7.88299 20 6.20376 20.0018 4.89125 19.8253C3.55253 19.6453 2.46004 19.2649 1.59712 18.402V18.4018C0.734553 17.5396 0.354322 16.4473 0.17445 15.109C-0.00194334 13.7965 9.04502e-07 12.117 9.04502e-07 10C9.04502e-07 7.88296 -0.00194323 6.20372 0.17445 4.89125C0.354359 3.55266 0.734557 2.46028 1.5969 1.59735L1.59757 1.59668C2.46086 0.734574 3.55311 0.35437 4.89169 0.17445C6.20404 -0.00193604 7.883 8.94549e-07 10 8.94549e-07ZM3.91757 9.45379C3.61803 9.44377 3.32578 9.54795 3.10014 9.74521L1.81885 10.8663C1.82183 12.587 1.84178 13.8649 1.97643 14.8668C2.11971 15.9329 2.37939 16.5658 2.79696 17.0261L2.88264 17.116L2.88286 17.1163C3.35175 17.5851 3.99666 17.8704 5.13361 18.0233C6.29677 18.1798 7.83159 18.1818 10 18.1818C12.1684 18.1818 13.7035 18.1798 14.8666 18.0233C16.0037 17.8704 16.648 17.5851 17.1158 17.1167L17.1165 17.116C17.2786 16.954 17.418 16.7705 17.5384 16.5532L14.6429 13.9475C14.337 13.6723 13.9468 13.5089 13.536 13.4841C13.1253 13.4593 12.7182 13.5748 12.3815 13.8113L12.1098 14.0021C11.5847 14.3711 10.9462 14.5431 10.3067 14.4877C9.66719 14.4324 9.06747 14.153 8.6135 13.6992L4.71369 9.79936L4.67307 9.76052C4.46607 9.57232 4.19839 9.46319 3.91757 9.45379ZM15 7.27273V5H12.7273C12.2252 5 11.8182 4.59299 11.8182 4.09091C11.8182 3.58883 12.2252 3.18182 12.7273 3.18182H15V0.909092C15 0.407015 15.407 8.94549e-07 15.9091 8.94549e-07C16.4112 8.94549e-07 16.8182 0.407015 16.8182 0.909092V3.18182H19.0909C19.593 3.18182 20 3.58883 20 4.09091C20 4.59299 19.593 5 19.0909 5H16.8182V7.27273C16.8182 7.7748 16.4112 8.18182 15.9091 8.18182C15.407 8.18182 15 7.7748 15 7.27273Z" fill="#F48C25"/>
</g>
<defs>
<clipPath id="clip0_92_848">
<rect width="20" height="20" fill="white"/>
</clipPath>
</defs>
</svg>
