<svg width="20" height="19" viewBox="0 0 20 19" fill="none" xmlns="http://www.w3.org/2000/svg">
<path d="M4.36503 10.7445L10.6575 16.8843C10.9144 17.1349 11.0377 17.4272 11.0274 17.7614C11.0171 18.0955 10.8831 18.3879 10.6254 18.6385C10.3686 18.8682 10.069 18.9885 9.72651 18.9993C9.38406 19.0102 9.08441 18.8899 8.82758 18.6385L0.351946 10.3686C0.223527 10.2433 0.13235 10.1076 0.0784142 9.9614C0.0244784 9.81521 -0.00163322 9.65859 7.90273e-05 9.49152C0.00179128 9.32445 0.0287588 9.16783 0.0809824 9.02164C0.133206 8.87546 0.223956 8.73972 0.35323 8.61442L8.82886 0.344576C9.06429 0.114858 9.3588 0 9.71238 0C10.066 0 10.3707 0.114858 10.6267 0.344576C10.8836 0.595177 11.012 0.892975 11.012 1.23797C11.012 1.58296 10.8836 1.88034 10.6267 2.13011L4.36503 8.23851H18.7158C19.0797 8.23851 19.3849 8.3588 19.6314 8.59938C19.878 8.83996 20.0009 9.13734 20 9.49152C19.9991 9.8457 19.8759 10.1435 19.6301 10.3849C19.3844 10.6263 19.0797 10.7462 18.7158 10.7445H4.36503Z" fill="#2C2C2C"/>
</svg>
