<svg width="13" height="16" viewBox="0 0 13 16" fill="none" xmlns="http://www.w3.org/2000/svg">
<path d="M6.32155 13.5462L2.52862 15.1717C1.92657 15.4276 1.35462 15.3788 0.81277 15.0254C0.270923 14.672 0 14.1714 0 13.5236V1.80616C0 1.30946 0.177003 0.884414 0.53101 0.53101C0.885016 0.177605 1.31007 0.000602052 1.80616 0H10.8369C11.3336 0 11.759 0.177003 12.113 0.53101C12.467 0.885017 12.6437 1.31007 12.6431 1.80616V13.5236C12.6431 14.1708 12.3722 14.6714 11.8303 15.0254C11.2885 15.3794 10.7165 15.4282 10.1145 15.1717L6.32155 13.5462ZM6.32155 11.5594L10.8369 13.501V1.80616H1.80616V13.501L6.32155 11.5594ZM6.32155 1.80616H1.80616H10.8369H6.32155Z" fill="#A0A0A0"/>
</svg>
