<svg width="12" height="12" viewBox="0 0 12 12" fill="none" xmlns="http://www.w3.org/2000/svg">
<path fill-rule="evenodd" clip-rule="evenodd" d="M2.25 0.375244C1.65326 0.375244 1.08097 0.612297 0.65901 1.03425C0.237053 1.45621 0 2.02851 0 2.62524V11.0627C9.77905e-05 11.1739 0.0331408 11.2826 0.0949558 11.375C0.156771 11.4674 0.244585 11.5394 0.347307 11.582C0.45003 11.6245 0.563053 11.6356 0.672102 11.614C0.781151 11.5923 0.881335 11.5388 0.96 11.4602L3.04725 9.37525H9.75C10.3467 9.37525 10.919 9.13819 11.341 8.71624C11.7629 8.29428 12 7.72198 12 7.12525V2.62524C12 2.02851 11.7629 1.45621 11.341 1.03425C10.919 0.612297 10.3467 0.375244 9.75 0.375244H2.25ZM1.125 2.62524C1.125 2.32688 1.24353 2.04073 1.4545 1.82975C1.66548 1.61877 1.95163 1.50024 2.25 1.50024H9.75C10.0484 1.50024 10.3345 1.61877 10.5455 1.82975C10.7565 2.04073 10.875 2.32688 10.875 2.62524V7.12525C10.875 7.42361 10.7565 7.70976 10.5455 7.92074C10.3345 8.13172 10.0484 8.25025 9.75 8.25025H2.58225L1.125 9.70525V2.62524ZM8.25 5.62525C8.44891 5.62525 8.63968 5.54623 8.78033 5.40557C8.92098 5.26492 9 5.07416 9 4.87525C9 4.67633 8.92098 4.48557 8.78033 4.34492C8.63968 4.20426 8.44891 4.12525 8.25 4.12525C8.05109 4.12525 7.86032 4.20426 7.71967 4.34492C7.57902 4.48557 7.5 4.67633 7.5 4.87525C7.5 5.07416 7.57902 5.26492 7.71967 5.40557C7.86032 5.54623 8.05109 5.62525 8.25 5.62525ZM6.75 4.87525C6.75 5.07416 6.67098 5.26492 6.53033 5.40557C6.38968 5.54623 6.19891 5.62525 6 5.62525C5.80109 5.62525 5.61032 5.54623 5.46967 5.40557C5.32902 5.26492 5.25 5.07416 5.25 4.87525C5.25 4.67633 5.32902 4.48557 5.46967 4.34492C5.61032 4.20426 5.80109 4.12525 6 4.12525C6.19891 4.12525 6.38968 4.20426 6.53033 4.34492C6.67098 4.48557 6.75 4.67633 6.75 4.87525ZM3.75 5.62525C3.94891 5.62525 4.13968 5.54623 4.28033 5.40557C4.42098 5.26492 4.5 5.07416 4.5 4.87525C4.5 4.67633 4.42098 4.48557 4.28033 4.34492C4.13968 4.20426 3.94891 4.12525 3.75 4.12525C3.55109 4.12525 3.36032 4.20426 3.21967 4.34492C3.07902 4.48557 3 4.67633 3 4.87525C3 5.07416 3.07902 5.26492 3.21967 5.40557C3.36032 5.54623 3.55109 5.62525 3.75 5.62525Z" fill="#FF9B3D"/>
</svg>
