<svg width="20" height="20" viewBox="0 0 20 20" fill="none" xmlns="http://www.w3.org/2000/svg">
<g clip-path="url(#clip0_583_44)">
<path d="M18 10C18 5.58172 14.4183 2 10 2C5.58172 2 2 5.58172 2 10C2 14.4183 5.58172 18 10 18C14.4183 18 18 14.4183 18 10ZM9 6.5C9 5.94772 9.44771 5.5 10 5.5C10.5523 5.5 11 5.94772 11 6.5V9H14.5C15.0523 9 15.5 9.44771 15.5 10C15.5 10.5523 15.0523 11 14.5 11H10.25C9.91848 11 9.60063 10.8682 9.36621 10.6338C9.13179 10.3994 9 10.0815 9 9.75V6.5ZM20 10C20 15.5228 15.5228 20 10 20C4.47715 20 0 15.5228 0 10C0 4.47715 4.47715 0 10 0C15.5228 0 20 4.47715 20 10Z" fill="#F48C25"/>
</g>
<defs>
<clipPath id="clip0_583_44">
<rect width="20" height="20" fill="white"/>
</clipPath>
</defs>
</svg>
