<svg width="20" height="20" viewBox="0 0 20 20" fill="none" xmlns="http://www.w3.org/2000/svg">
<path d="M16.875 0C16.3777 0 15.9008 0.197544 15.5492 0.549175C15.1975 0.900806 15 1.37772 15 1.875V18.125C15 18.6223 15.1975 19.0992 15.5492 19.4508C15.9008 19.8025 16.3777 20 16.875 20H18.125C18.6223 20 19.0992 19.8025 19.4508 19.4508C19.8025 19.0992 20 18.6223 20 18.125V1.875C20 1.37772 19.8025 0.900806 19.4508 0.549175C19.0992 0.197544 18.6223 0 18.125 0H16.875ZM9.375 5C8.87772 5 8.40081 5.19754 8.04917 5.54917C7.69754 5.9008 7.5 6.37772 7.5 6.875V18.125C7.5 18.6223 7.69754 19.0992 8.04917 19.4508C8.40081 19.8025 8.87772 20 9.375 20H10.625C11.1223 20 11.5992 19.8025 11.9508 19.4508C12.3025 19.0992 12.5 18.6223 12.5 18.125V6.875C12.5 6.37772 12.3025 5.9008 11.9508 5.54917C11.5992 5.19754 11.1223 5 10.625 5H9.375ZM1.875 10C1.37772 10 0.900806 10.1975 0.549175 10.5492C0.197544 10.9008 0 11.3777 0 11.875V18.125C0 18.6223 0.197544 19.0992 0.549175 19.4508C0.900806 19.8025 1.37772 20 1.875 20H3.125C3.62228 20 4.0992 19.8025 4.45083 19.4508C4.80246 19.0992 5 18.6223 5 18.125V11.875C5 11.3777 4.80246 10.9008 4.45083 10.5492C4.0992 10.1975 3.62228 10 3.125 10H1.875Z" fill="#F48C25"/>
</svg>
