<svg width="343" height="48" viewBox="0 0 343 48" fill="none" xmlns="http://www.w3.org/2000/svg">
<rect width="343" height="48" rx="8" fill="white"/>
<mask id="mask0_285_2675" style="mask-type:luminance" maskUnits="userSpaceOnUse" x="90" y="14" width="20" height="20">
<path d="M110 14H90V34H110V14Z" fill="white"/>
</mask>
<g mask="url(#mask0_285_2675)">
<path d="M109.6 24.2273C109.6 23.5182 109.536 22.8364 109.418 22.1818H100V26.05H105.382C105.15 27.3 104.446 28.3591 103.386 29.0682V31.5773H106.618C108.509 29.8364 109.6 27.2727 109.6 24.2273Z" fill="#4285F4"/>
<path d="M100 34C102.7 34 104.964 33.1045 106.618 31.5773L103.386 29.0682C102.491 29.6682 101.346 30.0227 100 30.0227C97.3955 30.0227 95.191 28.2636 94.4046 25.9H91.0637V28.4909C92.7092 31.7591 96.091 34 100 34Z" fill="#34A853"/>
<path d="M94.4045 25.9C94.2045 25.3 94.0909 24.6591 94.0909 24C94.0909 23.3409 94.2045 22.7 94.4045 22.1V19.5091H91.0636C90.3864 20.8591 90 22.3864 90 24C90 25.6136 90.3864 27.1409 91.0636 28.4909L94.4045 25.9Z" fill="#FBBC04"/>
<path d="M100 17.9773C101.468 17.9773 102.786 18.4818 103.823 19.4727L106.691 16.6045C104.959 14.9909 102.696 14 100 14C96.091 14 92.7092 16.2409 91.0637 19.5091L94.4046 22.1C95.191 19.7364 97.3955 17.9773 100 17.9773Z" fill="#E94235"/>
</g>
<path d="M131.766 18.125V19.3906C131.766 20.7109 131.766 22.1562 131.391 24.1562H133.344V25.5625H127.734V31.4062H125.984V25.5625H120.469V24.1562H129.625C130.016 22.2344 130.031 20.7969 130.031 19.5312H121.984V18.125H131.766ZM145.625 17.8594V18.7969C145.625 19.7266 145.625 20.8828 145.344 22.3594H147.203V23.7344H134.297V22.3594H143.594C143.844 21.0781 143.883 20.0703 143.891 19.2344H135.891V17.8594H145.625ZM145.609 24.8594V28.6875H137.531V29.8906H145.969V31.25H135.797V27.3594H143.875V26.2188H135.781V24.8594H145.609ZM155.719 18.2969C157.844 18.2969 159.375 20.2344 159.391 23.2812C159.375 26.3594 157.844 28.2812 155.719 28.2812C153.578 28.2812 152.031 26.3594 152.047 23.2812C152.031 20.2344 153.578 18.2969 155.719 18.2969ZM155.719 19.8594C154.531 19.8594 153.719 21.125 153.719 23.2812C153.719 25.4531 154.531 26.7188 155.719 26.7188C156.922 26.7188 157.719 25.4531 157.719 23.2812C157.719 21.125 156.922 19.8594 155.719 19.8594ZM162.984 17.2656V22.6875H165.156V24.1562H162.984V31.3906H161.25V17.2656H162.984ZM177.5 17.2656V31.4062H175.75V17.2656H177.5ZM169.891 18.2969C172.016 18.2969 173.562 20.2344 173.578 23.2812C173.562 26.3594 172.016 28.2812 169.891 28.2812C167.75 28.2812 166.203 26.3594 166.203 23.2812C166.203 20.2344 167.75 18.2969 169.891 18.2969ZM169.891 19.8594C168.688 19.8594 167.875 21.125 167.875 23.2812C167.875 25.4531 168.688 26.7188 169.891 26.7188C171.078 26.7188 171.891 25.4531 171.891 23.2812C171.891 21.125 171.078 19.8594 169.891 19.8594ZM191.328 17.2656V31.4062H189.578V17.2656H191.328ZM187.266 18.5469V19.9688H182.203V26.5312C184.805 26.5234 186.438 26.4453 188.312 26.1094L188.484 27.5469C186.469 27.9219 184.641 28 181.656 28H180.453V18.5469H187.266ZM206.312 28.3125V29.75H193.406V28.3125H198.969V26.0156H194.938V21.3906H203.062V19.6406H194.906V18.2344H204.781V22.7656H196.672V24.5938H205.109V26.0156H200.688V28.3125H206.312ZM223.938 28.3125V29.75H211.031V28.3125H216.594V26.0156H212.562V21.3906H220.688V19.6406H212.531V18.2344H222.406V22.7656H214.297V24.5938H222.734V26.0156H218.312V28.3125H223.938ZM236.094 18.6406V20.2344C236.094 22.125 236.094 24.0781 235.578 27.0469L233.812 26.8906C234.359 24.1094 234.359 22.0625 234.359 20.2344V20.0469H226.219V18.6406H236.094ZM237.734 28.0312V29.4531H224.859V28.0312H237.734ZM250.453 17.2812V27.4844H248.703V17.2812H250.453ZM250.844 29.7031V31.1094H241.109V26.4531H242.859V29.7031H250.844ZM242.75 18.2031C244.891 18.2031 246.547 19.6875 246.547 21.7344C246.547 23.8281 244.891 25.2812 242.75 25.2812C240.594 25.2812 238.938 23.8281 238.938 21.7344C238.938 19.6875 240.594 18.2031 242.75 18.2031ZM242.75 19.7188C241.547 19.7188 240.625 20.5156 240.641 21.7344C240.625 22.9844 241.547 23.7656 242.75 23.7656C243.922 23.7656 244.844 22.9844 244.844 21.7344C244.844 20.5156 243.922 19.7188 242.75 19.7188Z" fill="#1F1F1F"/>
</svg>
