<svg width="14" height="16" viewBox="0 0 14 16" fill="none" xmlns="http://www.w3.org/2000/svg">
<path d="M5.68753 10.6815V14.2271H8.31246V10.6815H5.68753ZM10.0624 14.2261C10.671 14.2241 11.098 14.2151 11.4285 14.17C11.8076 14.1183 11.9265 14.0349 11.9933 13.9672C12.0601 13.8995 12.1427 13.779 12.1937 13.3948C12.2481 12.985 12.2499 12.4288 12.2499 11.5679V7.80858C12.2499 6.52364 12.231 6.15585 12.0894 5.84443L12.089 5.84334C11.948 5.53223 11.685 5.28015 10.7219 4.44272V4.44251L9.84752 3.68355L9.27054 3.1845C8.7386 2.72772 8.33302 2.39443 7.97858 2.1572C7.52653 1.85464 7.249 1.77285 7 1.77285C6.75132 1.77285 6.47397 1.85455 6.02184 2.15741C5.54922 2.47402 4.98574 2.96113 4.15248 3.68398L4.15269 3.6842L3.27771 4.44402L3.2775 4.44381C2.31461 5.28021 2.05157 5.5335 1.90971 5.84551L1.90949 5.84529C1.76859 6.15706 1.75014 6.52617 1.75014 7.80945V11.5679C1.75014 12.4288 1.75191 12.985 1.80632 13.3948C1.85733 13.779 1.93986 13.8995 2.00669 13.9672C2.07352 14.0349 2.19242 14.1183 2.5715 14.17C2.90196 14.2151 3.329 14.2241 3.93758 14.2261V10.6815C3.93758 10.2113 4.12188 9.76025 4.45005 9.42778C4.77823 9.0953 5.22342 8.9086 5.68753 8.9086H8.31246C8.77658 8.9086 9.22177 9.0953 9.54995 9.42778C9.87812 9.76025 10.0624 10.2113 10.0624 10.6815V14.2261ZM13.9998 11.5679C13.9998 12.3787 14.0016 13.0759 13.9278 13.6314C13.8506 14.2125 13.6767 14.7692 13.2308 15.2209C12.7849 15.6726 12.2354 15.8489 11.6618 15.9271C11.1134 16.0018 10.4253 16 9.62493 16H4.37507C3.57472 16 2.88655 16.0018 2.33822 15.9271C1.76459 15.8489 1.2151 15.6726 0.769205 15.2209C0.323323 14.7692 0.14935 14.2125 0.0721711 13.6314C-0.00159199 13.0759 0.000181905 12.3787 0.000181971 11.5679V7.80945C0.000181971 6.68665 -0.0183915 5.85113 0.319754 5.10473L0.320181 5.10365C0.659549 4.3573 1.29755 3.8286 2.13871 3.09794L2.13892 3.09772L3.0139 2.33812L3.01411 2.3379C3.81244 1.64534 4.4718 1.07027 5.05672 0.678452C5.66222 0.272852 6.27746 0 7 0C7.72222 0 8.33749 0.272558 8.94328 0.678019C9.38223 0.97182 9.86292 1.36851 10.4125 1.8408L10.9861 2.33725L11.8611 3.09686L11.8617 3.09729C12.7005 3.8266 13.3403 4.35614 13.679 5.10278L13.7097 5.17312C14.0174 5.90232 13.9998 6.72108 13.9998 7.80858V11.5679Z" fill="#A0A0A0"/>
</svg>
