<svg width="151" height="32" viewBox="0 0 151 32" fill="none" xmlns="http://www.w3.org/2000/svg">
<path fill-rule="evenodd" clip-rule="evenodd" d="M4.05219 2.78262C3.72549 2.78262 3.4935 3.00383 3.44957 3.26746C3.14072 5.12054 2.71312 8.34188 2.74744 11.7635C2.75911 12.9704 3.54154 14.0277 4.77971 14.3094C6.5244 14.7073 8.57589 14.7073 10.3206 14.3094C11.5588 14.0277 12.3405 12.9704 12.3529 11.7635C12.3872 8.34118 11.9589 5.12054 11.65 3.26746C11.6054 3.00313 11.3741 2.78262 11.0467 2.78262H10.3583L10.637 8.99574C10.6494 9.27219 10.5529 9.54231 10.3688 9.74666C10.1846 9.95101 9.92794 10.0729 9.65517 10.0854C9.3824 10.0979 9.11588 10.0002 8.91425 9.81355C8.71262 9.62694 8.59239 9.3668 8.58001 9.09034L8.29724 2.78262H6.80237L6.51891 9.09034C6.50011 9.36194 6.3773 9.61533 6.1767 9.79643C5.9761 9.97753 5.7136 10.072 5.44523 10.0596C5.17687 10.0473 4.92389 9.92912 4.74031 9.73035C4.55672 9.53158 4.45707 9.26795 4.46262 8.99574L4.74128 2.78262H4.05219ZM0.741939 2.80488C1.01991 1.13753 2.45094 0.000215827 4.05219 0.000215827H11.0467C12.648 0.000215827 14.079 1.13683 14.357 2.80349C14.6796 4.74214 15.1346 8.14224 15.0982 11.7921C15.0735 14.2336 13.4565 16.4477 10.9225 17.0244C10.5894 17.1004 10.2499 17.1644 9.90397 17.2164L11.0227 28.0156C11.2121 29.8429 10.0893 31.68 8.21968 31.9437C7.97809 31.9784 7.74747 32 7.55049 32C7.35351 32 7.1229 31.9777 6.8813 31.9444C5.01238 31.68 3.88884 29.8436 4.07827 28.0156L5.19701 17.2164C4.85064 17.164 4.51112 17.1 4.17847 17.0244C1.6438 16.447 0.0260802 14.2343 0.00205809 11.7914C-0.0343183 8.14224 0.419357 4.74283 0.741939 2.80488ZM21.3049 3.28624V18.9609C22.4346 18.9122 23.4806 18.8107 24.3474 18.6931C24.9514 18.611 25.4586 18.5227 25.8375 18.4427C26.169 18.3718 26.3337 18.321 26.3818 18.3064C26.3955 18.3017 26.4001 18.3006 26.3955 18.3029C26.5966 18.2083 26.7847 17.9586 26.7661 17.5551C26.4456 10.2318 23.5286 5.39809 21.3049 3.28624ZM19.6734 0.370276C20.4483 -0.143774 21.4538 -0.135427 22.2664 0.476008C25.2829 2.74645 29.123 8.63264 29.5094 17.4313C29.5685 18.778 28.9171 20.1838 27.5513 20.8265C27.2507 20.9677 26.81 21.0784 26.401 21.1653C25.9439 21.2627 25.3687 21.3615 24.7119 21.4505C24.3172 21.5048 23.8896 21.5548 23.4367 21.5994L24.3275 27.9196C24.4518 28.8044 24.3468 29.6676 23.9761 30.3799C23.6014 31.0999 22.9651 31.6445 22.0784 31.8915C20.4174 32.3548 18.5595 31.2467 18.5595 29.4026V2.54403C18.5595 1.6801 18.9541 0.846764 19.6734 0.370276Z" fill="#F48C25"/>
<path d="M41.1412 2.27095C43.6203 2.27095 45.037 3.51895 44.9726 6.01495L44.8438 10.463H49.7698C51.8304 10.463 53.1182 11.583 53.1182 13.823C53.1182 16.063 51.8304 17.215 49.7698 17.183L41.431 17.055C39.1773 17.023 37.986 15.775 37.8894 13.535L37.5675 6.07895C37.4709 3.51895 38.6943 2.27095 41.1412 2.27095ZM60.9419 3.80695L61.0706 4.35095C61.9721 4.22295 62.3585 3.71095 63.099 3.71095C64.0649 3.71095 64.7732 4.60695 64.7732 6.39895C64.7732 8.06295 63.8717 9.08695 62.4551 9.08695C62.2619 9.08695 62.0365 9.05495 61.779 8.99095L61.8756 10.367C62.3263 10.175 62.7127 9.91895 63.2278 9.91895C64.1937 9.91895 64.902 10.815 64.902 12.607C64.902 14.271 64.0005 15.295 62.5839 15.295C62.3263 15.295 62.0687 15.263 61.7468 15.167C61.1994 16.991 59.6218 17.983 57.0783 17.983C54.2451 17.983 53.408 17.087 53.408 15.807C53.408 14.975 53.6333 14.367 54.2129 13.535C54.728 10.207 54.8568 7.13495 54.5992 3.74295C54.4704 2.14295 55.3719 1.11895 57.4969 1.11895C59.4286 1.11895 60.5555 2.20695 60.9419 3.80695ZM43.2018 30.559C40.7227 30.495 39.3705 29.247 39.3061 26.751L39.2095 22.143C39.1451 19.647 40.4973 18.239 43.0086 18.271L57.8188 18.463C60.3301 18.495 61.6824 19.807 61.6824 22.303V27.039C61.6824 29.535 60.3301 30.943 57.8188 30.879L43.2018 30.559ZM54.5992 25.535V23.391L46.357 23.199V25.343L54.5992 25.535Z" fill="#F48C25"/>
<path d="M70.1303 2.27095C72.6094 2.27095 74.0261 3.51895 73.9617 6.01495L73.8329 10.463H78.7589C80.8195 10.463 82.1073 11.583 82.1073 13.823C82.1073 16.063 80.8195 17.215 78.7589 17.183L70.4201 17.055C68.1664 17.023 66.9751 15.775 66.8785 13.535L66.5566 6.07895C66.46 3.51895 67.6834 2.27095 70.1303 2.27095ZM89.931 3.80695L90.0598 4.35095C90.9612 4.22295 91.3476 3.71095 92.0881 3.71095C93.054 3.71095 93.7623 4.60695 93.7623 6.39895C93.7623 8.06295 92.8608 9.08695 91.4442 9.08695C91.251 9.08695 91.0256 9.05495 90.7681 8.99095L90.8647 10.367C91.3154 10.175 91.7018 9.91895 92.2169 9.91895C93.1828 9.91895 93.8911 10.815 93.8911 12.607C93.8911 14.271 92.9896 15.295 91.573 15.295C91.3154 15.295 91.0578 15.263 90.7359 15.167C90.1885 16.991 88.6109 17.983 86.0674 17.983C83.2342 17.983 82.3971 17.087 82.3971 15.807C82.3971 14.975 82.6224 14.367 83.202 13.535C83.7171 10.207 83.8459 7.13495 83.5883 3.74295C83.4595 2.14295 84.361 1.11895 86.486 1.11895C88.4177 1.11895 89.5446 2.20695 89.931 3.80695ZM72.1909 30.559C69.7118 30.495 68.3596 29.247 68.2952 26.751L68.1986 22.143C68.1342 19.647 69.4864 18.239 71.9977 18.271L86.8079 18.463C89.3192 18.495 90.6715 19.807 90.6715 22.303V27.039C90.6715 29.535 89.3192 30.943 86.8079 30.879L72.1909 30.559ZM83.5883 25.535V23.391L75.3461 23.199V25.343L83.5883 25.535Z" fill="#F48C25"/>
<path d="M102.114 11.679H104.561L104.593 9.56695H102.049L102.114 11.679ZM118.92 3.80695C119.145 4.76695 119.339 5.75895 119.5 6.84695C120.176 6.62295 120.562 6.14295 121.206 6.14295C122.172 6.14295 122.88 7.16695 122.88 9.59895C122.88 12.031 121.979 13.183 120.562 13.183C120.369 13.183 120.144 13.151 119.95 13.119V14.175C119.95 17.055 118.276 18.623 115.057 18.623C112.223 18.623 111.386 17.727 111.386 16.447C111.386 15.615 111.612 15.007 112.191 14.175C112.706 10.527 112.835 7.13495 112.577 3.74295C112.449 2.14295 113.35 1.11895 115.475 1.11895C117.407 1.11895 118.534 2.20695 118.92 3.80695ZM110.646 28.799C110.646 28.031 110.968 27.487 111.612 27.039C111.869 26.559 111.998 25.823 111.998 25.183L100.504 24.991C97.9926 24.959 96.7691 23.935 96.7691 21.695C96.7691 19.775 97.9282 18.879 100.246 18.911L116.248 19.231C118.502 19.263 119.789 20.511 119.789 22.751C119.789 24.031 119.725 25.951 119.403 27.423C118.92 29.727 117.439 30.847 114.348 30.847C111.773 30.847 110.646 30.047 110.646 28.799ZM95.8676 13.535L95.6745 5.21495C95.6101 2.91095 96.6081 1.88695 98.7975 1.88695C100.568 1.88695 101.47 2.55895 101.792 3.99895H104.754C105.011 2.36695 105.945 1.63095 107.812 1.63095C110.002 1.63095 110.968 2.65495 110.935 4.95895L110.807 13.695C110.774 16.191 109.454 17.535 106.943 17.503L99.7312 17.375C97.2199 17.343 95.932 16.031 95.8676 13.535Z" fill="#F48C25"/>
<path d="M141.792 5.63095C141.728 6.62295 141.567 7.58295 141.341 8.47895C147.587 10.815 150.066 13.631 150.066 16.703C150.066 18.623 148.682 19.999 146.171 19.999C144.303 19.999 143.015 19.359 142.21 18.143C141.212 16.639 140.15 15.551 138.347 14.495C137.252 15.903 135.964 17.087 134.451 18.079C132.841 19.135 131.167 19.679 128.978 19.679C126.273 19.679 124.921 18.623 124.921 16.831C124.921 15.359 125.758 14.303 127.561 13.919C130.781 11.871 132.906 8.95895 133.743 5.50295C134.226 3.45495 135.675 2.43095 138.057 2.43095C140.44 2.43095 141.921 3.51895 141.792 5.63095ZM127.948 29.375C124.857 29.311 123.762 28.159 123.762 25.663C123.762 23.487 125.05 22.303 127.497 22.335L147.394 22.591C150.034 22.623 151 23.871 151 25.983C151 28.607 149.777 29.791 147.458 29.759L127.948 29.375Z" fill="#F48C25"/>
</svg>
