<svg width="16" height="16" viewBox="0 0 16 16" fill="none" xmlns="http://www.w3.org/2000/svg">
<path d="M7.56952 10.408C9.23429 10.408 10.8707 10.8192 12.2259 11.5991C13.5804 12.3786 14.6117 13.5042 15.0884 14.8411C15.2493 15.2923 15.0138 15.7885 14.5626 15.9494C14.1115 16.1102 13.6154 15.8749 13.4545 15.4238C13.142 14.5472 12.4297 13.7178 11.3607 13.1026C10.2926 12.4879 8.95943 12.1427 7.56952 12.1427C6.17957 12.1427 4.84621 12.4879 3.7781 13.1026C2.7092 13.7178 1.99706 14.5473 1.6845 15.4238C1.52359 15.875 1.02736 16.1103 0.576192 15.9494C0.125035 15.7885 -0.110257 15.2922 0.0506234 14.8411C0.527336 13.5042 1.55849 12.3786 2.91288 11.5991C4.2681 10.8192 5.9047 10.408 7.56952 10.408ZM10.1715 4.33668C10.1715 2.89965 9.00655 1.7347 7.56952 1.73467C6.13247 1.73467 4.96751 2.89963 4.96751 4.33668C4.96751 5.77373 6.13247 6.93869 7.56952 6.93869C9.00655 6.93867 10.1715 5.77372 10.1715 4.33668ZM11.9062 4.33668C11.9062 6.73175 9.96458 8.67334 7.56952 8.67337C5.17443 8.67337 3.23283 6.73177 3.23283 4.33668C3.23283 1.9416 5.17443 0 7.56952 0C9.96458 2.36939e-05 11.9062 1.94161 11.9062 4.33668Z" fill="#A0A0A0"/>
</svg>
