<svg width="343" height="48" viewBox="0 0 343 48" fill="none" xmlns="http://www.w3.org/2000/svg">
<path d="M0 8C0 3.58172 3.58172 0 8 0H335C339.418 0 343 3.58172 343 8V40C343 44.4183 339.418 48 335 48H7.99999C3.58172 48 0 44.4183 0 40V8Z" fill="#03A94D"/>
<path fill-rule="evenodd" clip-rule="evenodd" d="M124.848 24.5649L118.917 16H114V32H119.152V23.4381L125.083 32H130V16H124.848V24.5649Z" fill="white"/>
<path d="M140.972 17.9639V26.2148C142.441 26.1982 143.794 26.0903 145.321 25.7666L145.587 27.3271C143.678 27.7422 142.034 27.8086 140.142 27.8086H139.129V17.9639H140.972ZM151.447 16.4697V31.4775H149.688V16.4697H151.447ZM148.227 16.7852V30.7637H146.483V22.8115H143.346V21.3174H146.483V16.7852H148.227ZM165.375 16.4697V31.4941H163.515V16.4697H165.375ZM157.29 17.5654C159.548 17.5654 161.191 19.624 161.208 22.8613C161.191 26.1318 159.548 28.1738 157.29 28.1738C155.015 28.1738 153.372 26.1318 153.372 22.8613C153.372 19.624 155.015 17.5654 157.29 17.5654ZM157.29 19.2256C156.012 19.2256 155.148 20.5703 155.148 22.8613C155.148 25.1689 156.012 26.5137 157.29 26.5137C158.552 26.5137 159.415 25.1689 159.415 22.8613C159.415 20.5703 158.552 19.2256 157.29 19.2256ZM179.867 16.4697V31.4941H178.041V23.3594H174.986V27.8584H167.847V17.6318H169.707V21.3672H173.176V17.6318H174.986V21.8486H178.041V16.4697H179.867ZM169.707 26.3809H173.176V22.8115H169.707V26.3809ZM199.122 28.207V29.7344H185.409V28.207H191.32V25.7666H187.036V20.8525H195.669V18.9932H187.003V17.499H197.495V22.3135H188.879V24.2559H197.844V25.7666H193.146V28.207H199.122ZM211.738 17.9307V19.624C211.738 21.6328 211.738 23.708 211.19 26.8623L209.314 26.6963C209.896 23.7412 209.896 21.5664 209.896 19.624V19.4248H201.246V17.9307H211.738ZM213.481 27.9082V29.4189H199.802V27.9082H213.481ZM226.695 16.4863V27.3271H224.836V16.4863H226.695ZM227.11 29.6846V31.1787H216.767V26.2314H218.627V29.6846H227.11ZM218.511 17.4658C220.785 17.4658 222.545 19.043 222.545 21.2178C222.545 23.4424 220.785 24.9863 218.511 24.9863C216.22 24.9863 214.46 23.4424 214.46 21.2178C214.46 19.043 216.22 17.4658 218.511 17.4658ZM218.511 19.0762C217.232 19.0762 216.253 19.9229 216.269 21.2178C216.253 22.5459 217.232 23.376 218.511 23.376C219.756 23.376 220.735 22.5459 220.735 21.2178C220.735 19.9229 219.756 19.0762 218.511 19.0762Z" fill="white"/>
</svg>
