<svg width="20" height="20" viewBox="0 0 20 20" fill="none" xmlns="http://www.w3.org/2000/svg">
<path d="M7.35325 2.08081C8.01622 -0.650376 11.8509 -0.692922 12.6128 1.95312L12.6467 2.0813L12.647 2.08154C12.6738 2.19231 12.7264 2.29525 12.8005 2.38184C12.8746 2.46841 12.9682 2.53622 13.0735 2.57984C13.1788 2.62345 13.2929 2.64162 13.4065 2.63281C13.5201 2.624 13.6302 2.58864 13.7275 2.5293L13.7278 2.52905C16.166 1.0437 18.9571 3.83381 17.4722 6.27296V6.27321C17.4129 6.37049 17.3775 6.48044 17.3687 6.59401C17.3599 6.70754 17.3779 6.82156 17.4214 6.92677C17.465 7.03202 17.5329 7.12561 17.6194 7.19972C17.7059 7.27378 17.8086 7.32637 17.9192 7.35329H17.919C20.6938 8.02663 20.6937 11.9736 17.9187 12.6468L17.9185 12.647C17.8077 12.6739 17.7048 12.7265 17.6182 12.8006C17.5316 12.8747 17.4638 12.9682 17.4202 13.0735C17.3766 13.1788 17.3584 13.2929 17.3672 13.4065C17.3749 13.506 17.403 13.6026 17.4497 13.6905L17.4707 13.7276L17.471 13.7278C18.9563 16.166 16.1662 18.9571 13.7271 17.4722H13.7268C13.6295 17.413 13.5196 17.3775 13.406 17.3687C13.2925 17.3599 13.1785 17.3779 13.0732 17.4214C12.968 17.465 12.8744 17.5329 12.8003 17.6194C12.7262 17.7059 12.6736 17.8086 12.6467 17.9192L12.6465 17.919C11.9731 20.6937 8.02643 20.6937 7.35325 17.9188L7.353 17.9185C7.32616 17.8077 7.27355 17.7048 7.19944 17.6182C7.12533 17.5316 7.03177 17.4638 6.92649 17.4202C6.82119 17.3766 6.70711 17.3584 6.59348 17.3672C6.47984 17.3761 6.36976 17.4114 6.27243 17.4708L6.27219 17.471C3.83398 18.9564 1.04288 16.1662 2.52779 13.7271L2.52803 13.7268C2.58727 13.6296 2.62252 13.5196 2.6313 13.406C2.64009 13.2925 2.62213 13.1785 2.57857 13.0733C2.53499 12.968 2.46708 12.8744 2.38057 12.8003C2.29411 12.7263 2.19138 12.6737 2.08077 12.6468V12.6465C-0.693753 11.973 -0.693586 8.02646 2.08125 7.35329L2.0815 7.35304C2.19226 7.3262 2.2952 7.27359 2.38179 7.19948C2.46836 7.12537 2.53617 7.03181 2.57979 6.92653C2.62341 6.82123 2.64158 6.70715 2.63277 6.59352C2.62396 6.47988 2.58859 6.3698 2.52925 6.27247L2.52901 6.27223C1.04375 3.83418 3.83339 1.04332 6.27243 2.52759L6.31247 2.55029C6.71466 2.76267 7.20799 2.55721 7.34129 2.12476L7.35325 2.08081ZM10.7031 2.55274C10.5243 1.81577 9.47568 1.81577 9.29686 2.55274L9.29662 2.55322C8.86067 4.34598 6.81136 5.196 5.23337 4.23658L5.23288 4.23609C4.58415 3.84124 3.84257 4.58377 4.23678 5.23146L4.27755 5.30055C4.47635 5.64931 4.59584 6.03808 4.62692 6.43898C4.66006 6.86655 4.5916 7.29596 4.42745 7.69216C4.2633 8.08835 4.00791 8.44017 3.68209 8.71902C3.35627 8.99785 2.96923 9.19566 2.55245 9.29666L2.55269 9.2969C1.81573 9.47572 1.81573 10.5243 2.55269 10.7032L2.55318 10.7034C2.96962 10.8047 3.35638 11.0027 3.68185 11.2815C4.00732 11.5604 4.26251 11.9122 4.42648 12.3081C4.5904 12.7041 4.65851 13.1331 4.62545 13.5603C4.59445 13.9609 4.47529 14.3495 4.27682 14.698L4.23605 14.7671C3.84114 15.416 4.58391 16.1576 5.23166 15.763C5.59776 15.5398 6.01146 15.4062 6.43894 15.3731C6.86651 15.3399 7.29592 15.4084 7.69212 15.5726C8.08831 15.7367 8.44013 15.9921 8.71898 16.3179C8.99778 16.6437 9.19585 17.0306 9.29686 17.4473L9.31615 17.5142C9.54039 18.1835 10.5299 18.1613 10.7031 17.4473L10.7034 17.4468C10.8046 17.0304 11.0027 16.6436 11.2815 16.3182C11.5603 15.9927 11.9121 15.7375 12.3081 15.5735C12.704 15.4096 13.1331 15.3415 13.5603 15.3746C13.9876 15.4076 14.4011 15.5411 14.7671 15.764L14.8281 15.7977C15.4612 16.1125 16.1452 15.3959 15.763 14.7684V14.7681C15.5399 14.4021 15.4062 13.9885 15.3731 13.5611C15.3399 13.1335 15.4084 12.7041 15.5725 12.3079C15.7367 11.9117 15.9921 11.5599 16.3179 11.281C16.6437 11.0022 17.0306 10.8042 17.4473 10.7032L17.5142 10.6839C18.1835 10.4596 18.1612 9.47013 17.4473 9.2969L17.4468 9.29666C17.0304 9.19539 16.6436 8.99736 16.3181 8.71853C15.9927 8.43969 15.7375 8.08789 15.5735 7.69191C15.4096 7.29599 15.3415 6.86695 15.3745 6.43971C15.4076 6.01244 15.541 5.59892 15.7639 5.23292L15.7976 5.17189C16.1125 4.53887 15.3958 3.85479 14.7683 4.23707L14.7681 4.23682C14.402 4.45995 13.9885 4.59382 13.561 4.62696C13.1335 4.6601 12.7041 4.59164 12.3079 4.4275C11.9117 4.26334 11.5598 4.00795 11.281 3.68213C11.0022 3.35636 10.8041 2.96945 10.7031 2.55274ZM12 10C12 9.46959 11.7894 8.96079 11.4143 8.58572C11.0392 8.21064 10.5304 8.00002 9.99999 8.00002C9.46955 8.00002 8.96075 8.21064 8.58568 8.58572C8.2106 8.96079 7.99998 9.46959 7.99998 10C7.99998 10.5305 8.2106 11.0393 8.58568 11.4143C8.96075 11.7894 9.46955 12 9.99999 12C10.5304 12 11.0392 11.7894 11.4143 11.4143C11.7894 11.0393 12 10.5305 12 10ZM14 10C14 11.0609 13.5785 12.0783 12.8284 12.8284C12.0782 13.5786 11.0609 14 9.99999 14C8.93912 14 7.92176 13.5786 7.17161 12.8284C6.42146 12.0783 5.99997 11.0609 5.99997 10C5.99997 8.93916 6.42146 7.9218 7.17161 7.17165C7.92176 6.4215 8.93912 6.00001 9.99999 6.00001C11.0609 6.00001 12.0782 6.4215 12.8284 7.17165C13.5785 7.9218 14 8.93916 14 10Z" fill="#2C2C2C"/>
</svg>
