<svg width="19" height="13" viewBox="0 0 19 13" fill="none" xmlns="http://www.w3.org/2000/svg">
<path d="M2.29345 4.13533C2.29337 3.44999 2.46364 2.77536 2.78896 2.17214C3.11428 1.56892 3.58443 1.05603 4.15714 0.679583C4.72985 0.30314 5.38715 0.0749577 6.06992 0.0155595C6.75269 -0.0438387 7.43952 0.0674099 8.06863 0.339299C8.69774 0.611189 9.2494 1.03519 9.674 1.57317C10.0986 2.11115 10.3828 2.74624 10.5011 3.42131C10.6193 4.09638 10.568 4.79026 10.3515 5.44054C10.1351 6.09082 9.76044 6.67711 9.26122 7.14667C10.2024 7.60362 11.0196 8.28072 11.6436 9.12059C12.2675 9.96046 12.6798 10.9384 12.8455 11.9714C12.8638 12.0864 12.8592 12.2038 12.832 12.317C12.8049 12.4302 12.7557 12.5369 12.6873 12.6311C12.6189 12.7253 12.5326 12.805 12.4334 12.8659C12.3341 12.9267 12.2239 12.9674 12.1089 12.9856C11.994 13.0039 11.8766 12.9993 11.7634 12.9721C11.6502 12.945 11.5435 12.8958 11.4493 12.8274C11.3551 12.759 11.2753 12.6727 11.2145 12.5735C11.1536 12.4742 11.113 12.364 11.0947 12.249C10.9175 11.1389 10.3504 10.1283 9.4951 9.39872C8.63982 8.66914 7.55246 8.26836 6.42828 8.26836C5.30409 8.26836 4.21673 8.66914 3.36146 9.39872C2.50618 10.1283 1.93903 11.1389 1.76183 12.249C1.74353 12.364 1.70276 12.4742 1.64185 12.5734C1.58094 12.6726 1.50109 12.7589 1.40686 12.8272C1.31263 12.8956 1.20586 12.9447 1.09264 12.9718C0.979428 12.9988 0.861988 13.0033 0.747029 12.985C0.63207 12.9667 0.521842 12.926 0.422639 12.8651C0.323436 12.8042 0.2372 12.7243 0.168857 12.6301C0.100513 12.5358 0.0513989 12.4291 0.0243189 12.3159C-0.00276099 12.2026 -0.00727656 12.0852 0.0110301 11.9702C0.176154 10.9373 0.588245 9.95942 1.21227 9.11984C1.8363 8.28026 2.65382 7.60377 3.59533 7.14785C3.18421 6.76115 2.85662 6.29438 2.63272 5.77628C2.40882 5.25819 2.29336 4.69974 2.29345 4.13533ZM12.9259 2.36327C13.6123 2.36375 14.2838 2.56347 14.8588 2.93818C15.4339 3.3129 15.8879 3.8465 16.1656 4.47421C16.4433 5.10192 16.5328 5.79675 16.4233 6.47435C16.3137 7.15195 16.0099 7.78318 15.5485 8.29142C16.268 8.64785 16.9073 9.14722 17.4273 9.75902C17.9473 10.3708 18.3371 11.0822 18.5729 11.8497C18.6197 11.9987 18.6263 12.1573 18.592 12.3097C18.5576 12.462 18.4836 12.6025 18.3774 12.7169C18.2713 12.8314 18.1367 12.9157 17.9874 12.9614C17.8381 13.007 17.6794 13.0123 17.5273 12.9768C17.3753 12.9416 17.2353 12.867 17.1214 12.7603C17.0075 12.6537 16.9238 12.5189 16.8788 12.3695C16.6667 11.6848 16.2808 11.0666 15.7586 10.5755C15.2364 10.0844 14.5958 9.73702 13.8993 9.56731C13.7059 9.52061 13.5337 9.41013 13.4107 9.25368C13.2877 9.09724 13.221 8.90393 13.2212 8.70491V8.28906C13.2211 8.1241 13.267 7.96239 13.3539 7.82213C13.4407 7.68187 13.565 7.56864 13.7127 7.49518C14.0708 7.31768 14.3584 7.02431 14.5288 6.66271C14.6992 6.30112 14.7423 5.89255 14.6512 5.50336C14.56 5.11416 14.34 4.76722 14.0268 4.51887C13.7136 4.27052 13.3256 4.13536 12.9259 4.13533C12.6909 4.13533 12.4655 4.04199 12.2993 3.87582C12.1332 3.70966 12.0398 3.48429 12.0398 3.2493C12.0398 3.01431 12.1332 2.78894 12.2993 2.62278C12.4655 2.45662 12.6909 2.36327 12.9259 2.36327ZM6.42828 1.77258C6.11363 1.76546 5.80073 1.82128 5.50796 1.93676C5.21518 2.05223 4.94842 2.22503 4.72335 2.44502C4.49827 2.66501 4.31941 2.92775 4.19728 3.21781C4.07514 3.50787 4.01218 3.81941 4.0121 4.13414C4.01203 4.44887 4.07483 4.76044 4.19682 5.05056C4.31881 5.34069 4.49754 5.60351 4.7225 5.82361C4.94746 6.04371 5.21414 6.21665 5.50686 6.33227C5.79958 6.44789 6.11245 6.50387 6.4271 6.49691C7.04444 6.48326 7.63191 6.22847 8.06374 5.78709C8.49558 5.34571 8.73746 4.75282 8.73762 4.13532C8.73777 3.51783 8.49619 2.92481 8.06457 2.48321C7.63296 2.04162 7.04561 1.78654 6.42828 1.77258Z" fill="#F48C25"/>
</svg>
