<svg width="40" height="40" viewBox="0 0 40 40" fill="none" xmlns="http://www.w3.org/2000/svg">
<rect width="40" height="40" rx="20" fill="#F48C25" fill-opacity="0.1"/>
<path d="M14.3281 25.6719C15.9219 27.2344 17.8125 28.0156 20 28.0156C22.1875 28.0156 24.0625 27.2344 25.625 25.6719C27.2188 24.0781 28.0156 22.1875 28.0156 20C28.0156 19.3125 27.9062 18.5625 27.6875 17.75C27 17.9062 26.2344 17.9844 25.3906 17.9844C23.9531 17.9844 22.4375 17.5781 20.8438 16.7656C19.2812 15.9219 18.0938 14.9219 17.2812 13.7656C16.25 16.2656 14.5 18.0625 12.0312 19.1562C12 19.3438 11.9844 19.625 11.9844 20C11.9844 22.1875 12.7656 24.0781 14.3281 25.6719ZM12.9219 12.9688C14.8906 11 17.25 10.0156 20 10.0156C22.75 10.0156 25.0938 11 27.0312 12.9688C29 14.9062 29.9844 17.25 29.9844 20C29.9844 22.75 29 25.1094 27.0312 27.0781C25.0938 29.0156 22.75 29.9844 20 29.9844C17.25 29.9844 14.8906 29.0156 12.9219 27.0781C10.9844 25.1094 10.0156 22.75 10.0156 20C10.0156 17.25 10.9844 14.9062 12.9219 12.9688ZM22.1094 20.1406C22.3594 19.8906 22.6562 19.7656 23 19.7656C23.3438 19.7656 23.6406 19.8906 23.8906 20.1406C24.1406 20.3594 24.2656 20.6406 24.2656 20.9844C24.2656 21.3281 24.1406 21.625 23.8906 21.875C23.6406 22.125 23.3438 22.25 23 22.25C22.6562 22.25 22.3594 22.125 22.1094 21.875C21.8594 21.625 21.7344 21.3281 21.7344 20.9844C21.7344 20.6406 21.8594 20.3594 22.1094 20.1406ZM16.1094 20.1406C16.3594 19.8906 16.6562 19.7656 17 19.7656C17.3438 19.7656 17.6406 19.8906 17.8906 20.1406C18.1406 20.3594 18.2656 20.6406 18.2656 20.9844C18.2656 21.3281 18.1406 21.625 17.8906 21.875C17.6406 22.125 17.3438 22.25 17 22.25C16.6562 22.25 16.3594 22.125 16.1094 21.875C15.8594 21.625 15.7344 21.3281 15.7344 20.9844C15.7344 20.6406 15.8594 20.3594 16.1094 20.1406Z" fill="#F48C25"/>
</svg>
