<svg width="14" height="16" viewBox="0 0 14 16" fill="none" xmlns="http://www.w3.org/2000/svg">
<path fill-rule="evenodd" clip-rule="evenodd" d="M7.02006 0C8.46619 0 9.71576 0.815 10.3446 2.005C11.332 2.05896 12.2612 2.4881 12.9411 3.20419C13.621 3.92028 13.9999 4.86889 14 5.855L13.988 6.158C13.9376 6.78675 13.7332 7.39355 13.3925 7.92503C13.0519 8.45651 12.5855 8.89639 12.0344 9.206V14.25C12.0344 14.7141 11.8495 15.1592 11.5204 15.4874C11.1912 15.8156 10.7448 16 10.2794 16H3.76075C3.29529 16 2.84889 15.8156 2.51976 15.4874C2.19063 15.1592 2.00573 14.7141 2.00573 14.25V9.229C1.44432 8.92234 0.968186 8.4813 0.620168 7.94558C0.27215 7.40985 0.0631705 6.79626 0.0120343 6.16L0 5.855C0.000300004 4.8623 0.384532 3.90797 1.07271 3.19064C1.7609 2.47332 2.70001 2.04828 3.69456 2.004C4.01338 1.39973 4.4916 0.893725 5.07764 0.540566C5.66369 0.187407 6.33531 0.000497586 7.02006 0ZM3.51003 14.25C3.51003 14.388 3.62235 14.5 3.76075 14.5H10.2794C10.3459 14.5 10.4096 14.4737 10.4567 14.4268C10.5037 14.3799 10.5301 14.3163 10.5301 14.25V12.5H3.51003V14.25ZM7.02006 1.5C6.55152 1.50032 6.0947 1.64606 5.713 1.917C5.3313 2.18794 5.04365 2.57065 4.88997 3.012L4.69542 3.572L4.10573 3.512L3.86605 3.5C3.23975 3.50027 2.63919 3.74847 2.19633 4.19006C1.75348 4.63165 1.50456 5.2305 1.5043 5.855L1.51132 6.041C1.58352 6.961 2.19026 7.734 3.02564 8.051L3.51003 8.236V11H10.5301V8.23L11.0044 8.041C11.4966 7.84745 11.9092 7.49463 12.1761 7.03916C12.443 6.5837 12.5486 6.05203 12.4761 5.5295C12.4036 5.00697 12.1571 4.5239 11.7761 4.15784C11.3952 3.79179 10.902 3.56398 10.3756 3.511L10.135 3.5C10.0668 3.5 9.99656 3.50333 9.92436 3.51L9.34069 3.56L9.14814 3.01C8.99423 2.56934 8.70674 2.1873 8.32547 1.91677C7.9442 1.64623 7.48801 1.50059 7.02006 1.5Z" fill="#A0A0A0"/>
</svg>
