<svg width="14" height="10" viewBox="0 0 14 10" fill="none" xmlns="http://www.w3.org/2000/svg">
<g clip-path="url(#clip0_798_1272)">
<path d="M7.84667 4.99998C7.84667 4.2636 7.24971 3.66665 6.51333 3.66665C5.77695 3.66665 5.18 4.2636 5.18 4.99998C5.18 5.73636 5.77695 6.33331 6.51333 6.33331C7.24971 6.33331 7.84667 5.73636 7.84667 4.99998ZM9.18 4.99998C9.18 6.47274 7.98609 7.66665 6.51333 7.66665C5.04057 7.66665 3.84667 6.47274 3.84667 4.99998C3.84667 3.52722 5.04057 2.33331 6.51333 2.33331C7.98609 2.33331 9.18 3.52722 9.18 4.99998Z" fill="#F48C25"/>
<path d="M6.51335 0.333313C7.92004 0.333317 9.18402 0.95162 10.186 1.67251C11.1303 2.35187 11.8925 3.15858 12.3905 3.75014L12.4867 3.86554L12.487 3.86603C12.6969 4.12139 13.0267 4.47374 13.0267 4.99998C13.0267 5.52622 12.6969 5.87857 12.487 6.13393L12.4867 6.13442C11.9935 6.73321 11.1933 7.60279 10.186 8.32745C9.18402 9.04834 7.92004 9.66664 6.51335 9.66665C5.10665 9.66665 3.84268 9.04834 2.84066 8.32745C1.83339 7.60279 1.03325 6.73322 0.540039 6.13442L0.539714 6.13393C0.329791 5.87856 0 5.52623 0 4.99998C0 4.47373 0.329791 4.1214 0.539714 3.86603L0.540039 3.86554C1.03325 3.26674 1.83339 2.39717 2.84066 1.67251C3.84268 0.951618 5.10665 0.333313 6.51335 0.333313ZM6.51335 1.66665C5.49604 1.66665 4.50395 2.11842 3.6193 2.75486C2.74019 3.38733 2.02297 4.16205 1.5695 4.71254L1.56966 4.71271C1.5031 4.79368 1.45333 4.8541 1.41211 4.90737C1.37959 4.94939 1.35926 4.97898 1.3457 4.99998C1.35926 5.02098 1.37959 5.05057 1.41211 5.09259C1.45333 5.14586 1.5031 5.20628 1.56966 5.28725C2.02313 5.83775 2.74018 6.61262 3.6193 7.2451C4.50395 7.88154 5.49604 8.33331 6.51335 8.33331C7.53065 8.33331 8.52275 7.88154 9.40739 7.2451C10.2867 6.61244 11.0039 5.83729 11.4574 5.28676C11.5237 5.20601 11.5734 5.14576 11.6146 5.09259C11.6471 5.05061 11.6673 5.02098 11.6808 4.99998C11.6673 4.97898 11.6471 4.94935 11.6146 4.90737C11.5734 4.8542 11.5237 4.79395 11.4574 4.7132L11.3693 4.6074C10.9137 4.06631 10.2318 3.34797 9.40739 2.75486C8.52275 2.11842 7.53065 1.66665 6.51335 1.66665Z" fill="#F48C25"/>
</g>
<defs>
<clipPath id="clip0_798_1272">
<rect width="13.3333" height="10" fill="white"/>
</clipPath>
</defs>
</svg>
