<svg width="9" height="10" viewBox="0 0 9 10" fill="none" xmlns="http://www.w3.org/2000/svg">
<path d="M4.12275 8.83446L1.6491 9.89459C1.25646 10.0615 0.883446 10.0297 0.530068 9.79918C0.176689 9.5687 0 9.24222 0 8.81973V1.17793C0 0.853998 0.115437 0.576792 0.346311 0.346311C0.577185 0.11583 0.85439 0.000392643 1.17793 0H7.06757C7.3915 0 7.6689 0.115437 7.89977 0.346311C8.13065 0.577185 8.24589 0.85439 8.24549 1.17793V8.81973C8.24549 9.24183 8.06881 9.56831 7.71543 9.79918C7.36205 10.0301 6.98904 10.0619 6.5964 9.89459L4.12275 8.83446ZM4.12275 7.53874L7.06757 8.80501V1.17793H1.17793V8.80501L4.12275 7.53874ZM4.12275 1.17793H1.17793H7.06757H4.12275Z" fill="#F48C25"/>
</svg>
