<svg width="20" height="20" viewBox="0 0 20 20" fill="none" xmlns="http://www.w3.org/2000/svg">
<path d="M4.3125 15.6562C5.90625 17.2188 7.79688 18 9.98438 18C12.1719 18 14.0469 17.2188 15.6094 15.6562C17.2031 14.0625 18 12.1719 18 9.98438C18 9.29688 17.8906 8.54688 17.6719 7.73438C16.9844 7.89062 16.2188 7.96875 15.375 7.96875C13.9375 7.96875 12.4219 7.5625 10.8281 6.75C9.26562 5.90625 8.07812 4.90625 7.26562 3.75C6.23438 6.25 4.48438 8.04688 2.01562 9.14062C1.98438 9.32812 1.96875 9.60938 1.96875 9.98438C1.96875 12.1719 2.75 14.0625 4.3125 15.6562ZM2.90625 2.95312C4.875 0.984375 7.23438 0 9.98438 0C12.7344 0 15.0781 0.984375 17.0156 2.95312C18.9844 4.89062 19.9688 7.23438 19.9688 9.98438C19.9688 12.7344 18.9844 15.0938 17.0156 17.0625C15.0781 19 12.7344 19.9688 9.98438 19.9688C7.23438 19.9688 4.875 19 2.90625 17.0625C0.96875 15.0938 0 12.7344 0 9.98438C0 7.23438 0.96875 4.89062 2.90625 2.95312ZM12.0938 10.125C12.3438 9.875 12.6406 9.75 12.9844 9.75C13.3281 9.75 13.625 9.875 13.875 10.125C14.125 10.3438 14.25 10.625 14.25 10.9688C14.25 11.3125 14.125 11.6094 13.875 11.8594C13.625 12.1094 13.3281 12.2344 12.9844 12.2344C12.6406 12.2344 12.3438 12.1094 12.0938 11.8594C11.8438 11.6094 11.7188 11.3125 11.7188 10.9688C11.7188 10.625 11.8438 10.3438 12.0938 10.125ZM6.09375 10.125C6.34375 9.875 6.64062 9.75 6.98438 9.75C7.32812 9.75 7.625 9.875 7.875 10.125C8.125 10.3438 8.25 10.625 8.25 10.9688C8.25 11.3125 8.125 11.6094 7.875 11.8594C7.625 12.1094 7.32812 12.2344 6.98438 12.2344C6.64062 12.2344 6.34375 12.1094 6.09375 11.8594C5.84375 11.6094 5.71875 11.3125 5.71875 10.9688C5.71875 10.625 5.84375 10.3438 6.09375 10.125Z" fill="#F48C25"/>
</svg>
