<svg width="20" height="20" viewBox="0 0 20 20" fill="none" xmlns="http://www.w3.org/2000/svg">
<path d="M15.5556 8.88893C15.5556 5.20701 12.5708 2.22223 8.88893 2.22223C5.20701 2.22223 2.22223 5.20701 2.22223 8.88893C2.22223 12.5708 5.20701 15.5556 8.88893 15.5556C12.5708 15.5556 15.5556 12.5708 15.5556 8.88893ZM17.7779 8.88893C17.7779 11.0043 17.0382 12.9465 15.8044 14.4727C16.0011 14.5177 16.188 14.6168 16.3412 14.77L19.6746 18.1034C20.1085 18.5373 20.1085 19.2406 19.6746 19.6746C19.2406 20.1085 18.5373 20.1085 18.1034 19.6746L14.77 16.3412C14.6168 16.188 14.5177 16.0011 14.4727 15.8044C12.9465 17.0382 11.0043 17.7779 8.88893 17.7779C3.97971 17.7779 0 13.7981 0 8.88893C0 3.97971 3.97971 0 8.88893 0C13.7981 0 17.7779 3.97971 17.7779 8.88893Z" fill="#2C2C2C"/>
</svg>
