<svg width="16" height="16" viewBox="0 0 16 16" fill="none" xmlns="http://www.w3.org/2000/svg">
<path d="M9.3645 12.0174L5.82846 10.1856C5.36681 10.6544 4.76738 10.9805 4.10808 11.1214C3.44877 11.2624 2.76008 11.2117 2.1315 10.976C1.50292 10.7402 0.963521 10.3304 0.583396 9.7996C0.203271 9.26885 0 8.64175 0 7.99982C0 7.35788 0.203271 6.73079 0.583396 6.20003C0.963521 5.66927 1.50292 5.25939 2.1315 5.02366C2.76008 4.78793 3.44877 4.73725 4.10808 4.8782C4.76738 5.01915 5.36681 5.34521 5.82846 5.81402L9.36535 3.98219C9.16484 3.22703 9.26117 2.42834 9.63627 1.73582C10.0114 1.0433 10.6395 0.504506 11.4029 0.220439C12.1663 -0.0636287 13.0125 -0.0734674 13.783 0.192767C14.5535 0.459001 15.1953 0.983029 15.5882 1.66662C15.981 2.35021 16.0979 3.14643 15.9169 3.90602C15.7359 4.66562 15.2695 5.33643 14.6051 5.79272C13.9406 6.24901 13.1238 6.45945 12.3077 6.38458C11.4916 6.30972 10.7323 5.95469 10.1721 5.38606L6.63521 7.21789C6.77124 7.7309 6.77124 8.26794 6.63521 8.78094L10.1721 10.6128C10.7326 10.0444 11.4921 9.68976 12.3082 9.61527C13.1243 9.54078 13.941 9.75159 14.6052 10.2082C15.2694 10.6647 15.7355 11.3357 15.9161 12.0954C16.0967 12.8551 15.9795 13.6512 15.5863 14.3346C15.1932 15.018 14.5511 15.5418 13.7805 15.8077C13.01 16.0736 12.1637 16.0634 11.4005 15.7791C10.6372 15.4947 10.0093 14.9557 9.63451 14.2631C9.25971 13.5704 9.1637 12.7717 9.3645 12.0166M3.36864 9.59927C3.81532 9.59927 4.24371 9.43071 4.55957 9.13068C4.87542 8.83065 5.05287 8.42372 5.05287 7.99942C5.05287 7.57511 4.87542 7.16818 4.55957 6.86815C4.24371 6.56812 3.81532 6.39957 3.36864 6.39957C2.92195 6.39957 2.49356 6.56812 2.17771 6.86815C1.86185 7.16818 1.68441 7.57511 1.68441 7.99942C1.68441 8.42372 1.86185 8.83065 2.17771 9.13068C2.49356 9.43071 2.92195 9.59927 3.36864 9.59927ZM12.6319 4.79972C13.0786 4.79972 13.507 4.63116 13.8228 4.33113C14.1387 4.0311 14.3161 3.62417 14.3161 3.19987C14.3161 2.77556 14.1387 2.36863 13.8228 2.0686C13.507 1.76857 13.0786 1.60002 12.6319 1.60002C12.1852 1.60002 11.7568 1.76857 11.441 2.0686C11.1251 2.36863 10.9477 2.77556 10.9477 3.19987C10.9477 3.62417 11.1251 4.0311 11.441 4.33113C11.7568 4.63116 12.1852 4.79972 12.6319 4.79972ZM12.6319 14.3988C13.0786 14.3988 13.507 14.2303 13.8228 13.9302C14.1387 13.6302 14.3161 13.2233 14.3161 12.799C14.3161 12.3747 14.1387 11.9677 13.8228 11.6677C13.507 11.3677 13.0786 11.1991 12.6319 11.1991C12.1852 11.1991 11.7568 11.3677 11.441 11.6677C11.1251 11.9677 10.9477 12.3747 10.9477 12.799C10.9477 13.2233 11.1251 13.6302 11.441 13.9302C11.7568 14.2303 12.1852 14.3988 12.6319 14.3988Z" fill="#2C2C2C"/>
</svg>
