<svg width="19" height="20" viewBox="0 0 19 20" fill="none" xmlns="http://www.w3.org/2000/svg">
<path fill-rule="evenodd" clip-rule="evenodd" d="M2.10495 0C1.54668 0 1.01128 0.221757 0.616524 0.616487C0.22177 1.01122 0 1.54659 0 2.10482V17.891C0 18.4492 0.22177 18.9846 0.616524 19.3793C1.01128 19.774 1.54668 19.9958 2.10495 19.9958H5.26236V17.891H2.10495V2.10482H14.7346V6.31446H16.8396V2.10482C16.8396 1.54659 16.6178 1.01122 16.223 0.616487C15.8283 0.221757 15.2929 0 14.7346 0H2.10495ZM5.26236 5.26205C4.98323 5.26205 4.71553 5.37293 4.51815 5.57029C4.32078 5.76766 4.20989 6.03534 4.20989 6.31446C4.20989 6.59358 4.32078 6.86126 4.51815 7.05863C4.71553 7.25599 4.98323 7.36687 5.26236 7.36687H9.47226C9.75139 7.36687 10.0191 7.25599 10.2165 7.05863C10.4138 6.86126 10.5247 6.59358 10.5247 6.31446C10.5247 6.03534 10.4138 5.76766 10.2165 5.57029C10.0191 5.37293 9.75139 5.26205 9.47226 5.26205H5.26236ZM13.6285 9.27278C14.2223 8.68872 15.0229 8.36296 15.8558 8.36645C16.6887 8.36994 17.4866 8.7024 18.0755 9.29141C18.6644 9.88043 18.9967 10.6783 19 11.5112C19.0033 12.3441 18.6773 13.1445 18.0931 13.7382L12.1403 19.6916C11.9429 19.889 11.6753 19.9999 11.3962 20H8.41873C8.1396 20 7.8719 19.8891 7.67452 19.6918C7.47714 19.4944 7.36626 19.2267 7.36626 18.9476V15.9703C7.36632 15.6912 7.47724 15.4236 7.67463 15.2263L13.6285 9.27278ZM16.6049 10.7609C16.4075 10.5636 16.1398 10.4528 15.8608 10.4528C15.5817 10.4528 15.314 10.5636 15.1167 10.7609L16.6049 12.2501C16.7027 12.1523 16.7803 12.0362 16.8333 11.9085C16.8863 11.7807 16.9135 11.6438 16.9135 11.5055C16.9135 11.3672 16.8863 11.2302 16.8333 11.1025C16.7803 10.9747 16.7027 10.8586 16.6049 10.7609ZM15.1167 13.7382L13.6285 12.2501L9.4712 16.4071V17.8952H10.9594L15.1167 13.7382Z" fill="white"/>
</svg>
